<svg width="17" height="20" viewBox="0 0 17 20" fill="none" xmlns="http://www.w3.org/2000/svg">
<path d="M9.65295 6.24945H11.0021V7.59863H9.65295V6.24945Z" fill="white"/>
<path d="M5.60535 6.24945H6.95453V7.59863H5.60535V6.24945Z" fill="white"/>
<path d="M15.0496 12.9954H11.6767V11.6462H12.3513C12.709 11.6458 13.0519 11.5035 13.3048 11.2506C13.5578 10.9976 13.7 10.6547 13.7004 10.297V7.59863H15.0496V6.24945H13.7004V4.90027C13.7 4.54257 13.5578 4.19964 13.3048 3.94671C13.0519 3.69377 12.709 3.5515 12.3513 3.55109H11.0021V0.852722H9.65289V3.55109H6.95453V0.852722H5.60535V3.55109H4.25616C3.89846 3.5515 3.55553 3.69377 3.3026 3.94671C3.04967 4.19964 2.90739 4.54257 2.90698 4.90027V6.24945H1.5578V7.59863H2.90698V10.297C2.90739 10.6547 3.04967 10.9976 3.3026 11.2506C3.55553 11.5035 3.89846 11.6458 4.25616 11.6462H4.93076V12.9954H1.5578C1.2001 12.9958 0.85717 13.138 0.604238 13.391C0.351306 13.6439 0.209029 13.9868 0.208618 14.3445V19.7413H1.5578V14.3445H15.0496V19.7413H16.3988V14.3445C16.3984 13.9868 16.2561 13.6439 16.0032 13.391C15.7503 13.138 15.4073 12.9958 15.0496 12.9954ZM4.25616 4.90027H12.3513V10.297H4.25616V4.90027ZM6.27994 11.6462H10.3275V12.9954H6.27994V11.6462Z" fill="white"/>
</svg>
