<svg width="22" height="22" viewBox="0 0 22 22" fill="none" xmlns="http://www.w3.org/2000/svg">
<g clip-path="url(#clip0_34_92)">
<path d="M11.3037 21.4294C8.49611 21.4294 5.80355 20.3141 3.81831 18.3289C1.83307 16.3436 0.717773 13.6511 0.717773 10.8435C0.717773 8.03597 1.83307 5.3434 3.81831 3.35816C5.80355 1.37293 8.49611 0.257629 11.3037 0.257629C14.1112 0.257629 16.8038 1.37293 18.789 3.35816C20.7743 5.3434 21.8896 8.03597 21.8896 10.8435C21.8896 13.6511 20.7743 16.3436 18.789 18.3289C16.8038 20.3141 14.1112 21.4294 11.3037 21.4294ZM9.05945 8.59931L5.31205 16.8351L13.5479 13.0877L17.2953 4.85191L9.05945 8.59931ZM11.3037 11.9021C11.0229 11.9021 10.7537 11.7906 10.5551 11.5921C10.3566 11.3935 10.2451 11.1243 10.2451 10.8435C10.2451 10.5628 10.3566 10.2935 10.5551 10.095C10.7537 9.89646 11.0229 9.78493 11.3037 9.78493C11.5844 9.78493 11.8537 9.89646 12.0522 10.095C12.2507 10.2935 12.3623 10.5628 12.3623 10.8435C12.3623 11.1243 12.2507 11.3935 12.0522 11.5921C11.8537 11.7906 11.5844 11.9021 11.3037 11.9021Z" fill="white"/>
</g>
<defs>
<clipPath id="clip0_34_92">
<rect width="21.1718" height="21.1718" fill="white" transform="translate(0.717773 0.257629)"/>
</clipPath>
</defs>
</svg>
