<svg width="22" height="22" viewBox="0 0 22 22" fill="none" xmlns="http://www.w3.org/2000/svg">
<path fill-rule="evenodd" clip-rule="evenodd" d="M4.2464 0.797546C3.31055 0.797546 2.41303 1.16931 1.75129 1.83106C1.08954 2.4928 0.717773 3.39033 0.717773 4.32618V6.6786C0.717773 7.61445 1.08954 8.51197 1.75129 9.17371C2.41303 9.83546 3.31055 10.2072 4.2464 10.2072H6.59882C7.53467 10.2072 8.4322 9.83546 9.09394 9.17371C9.75569 8.51197 10.1275 7.61445 10.1275 6.6786V4.32618C10.1275 3.39033 9.75569 2.4928 9.09394 1.83106C8.4322 1.16931 7.53467 0.797546 6.59882 0.797546H4.2464ZM3.07019 4.32618C3.07019 4.01423 3.19412 3.71505 3.4147 3.49447C3.63528 3.27389 3.93445 3.14997 4.2464 3.14997H6.59882C6.91077 3.14997 7.20995 3.27389 7.43053 3.49447C7.65111 3.71505 7.77503 4.01423 7.77503 4.32618V6.6786C7.77503 6.99055 7.65111 7.28972 7.43053 7.5103C7.20995 7.73088 6.91077 7.85481 6.59882 7.85481H4.2464C3.93445 7.85481 3.63528 7.73088 3.4147 7.5103C3.19412 7.28972 3.07019 6.99055 3.07019 6.6786V4.32618ZM4.2464 12.5596C3.31055 12.5596 2.41303 12.9314 1.75129 13.5932C1.08954 14.2549 0.717773 15.1524 0.717773 16.0883V18.4407C0.717773 19.3765 1.08954 20.2741 1.75129 20.9358C2.41303 21.5976 3.31055 21.9693 4.2464 21.9693H6.59882C7.53467 21.9693 8.4322 21.5976 9.09394 20.9358C9.75569 20.2741 10.1275 19.3765 10.1275 18.4407V16.0883C10.1275 15.1524 9.75569 14.2549 9.09394 13.5932C8.4322 12.9314 7.53467 12.5596 6.59882 12.5596H4.2464ZM3.07019 16.0883C3.07019 15.7763 3.19412 15.4772 3.4147 15.2566C3.63528 15.036 3.93445 14.9121 4.2464 14.9121H6.59882C6.91077 14.9121 7.20995 15.036 7.43053 15.2566C7.65111 15.4772 7.77503 15.7763 7.77503 16.0883V18.4407C7.77503 18.7526 7.65111 19.0518 7.43053 19.2724C7.20995 19.493 6.91077 19.6169 6.59882 19.6169H4.2464C3.93445 19.6169 3.63528 19.493 3.4147 19.2724C3.19412 19.0518 3.07019 18.7526 3.07019 18.4407V16.0883ZM12.4799 4.32618C12.4799 3.39033 12.8516 2.4928 13.5134 1.83106C14.1751 1.16931 15.0727 0.797546 16.0085 0.797546H18.3609C19.2968 0.797546 20.1943 1.16931 20.856 1.83106C21.5178 2.4928 21.8896 3.39033 21.8896 4.32618V6.6786C21.8896 7.61445 21.5178 8.51197 20.856 9.17371C20.1943 9.83546 19.2968 10.2072 18.3609 10.2072H16.0085C15.0727 10.2072 14.1751 9.83546 13.5134 9.17371C12.8516 8.51197 12.4799 7.61445 12.4799 6.6786V4.32618ZM16.0085 3.14997C15.6966 3.14997 15.3974 3.27389 15.1768 3.49447C14.9562 3.71505 14.8323 4.01423 14.8323 4.32618V6.6786C14.8323 6.99055 14.9562 7.28972 15.1768 7.5103C15.3974 7.73088 15.6966 7.85481 16.0085 7.85481H18.3609C18.6729 7.85481 18.972 7.73088 19.1926 7.5103C19.4132 7.28972 19.5371 6.99055 19.5371 6.6786V4.32618C19.5371 4.01423 19.4132 3.71505 19.1926 3.49447C18.972 3.27389 18.6729 3.14997 18.3609 3.14997H16.0085ZM18.3609 13.7359C18.3609 13.4239 18.237 13.1247 18.0164 12.9041C17.7958 12.6836 17.4967 12.5596 17.1847 12.5596C16.8728 12.5596 16.5736 12.6836 16.353 12.9041C16.1324 13.1247 16.0085 13.4239 16.0085 13.7359V16.0883H13.6561C13.3441 16.0883 13.045 16.2122 12.8244 16.4328C12.6038 16.6534 12.4799 16.9525 12.4799 17.2645C12.4799 17.5764 12.6038 17.8756 12.8244 18.0962C13.045 18.3168 13.3441 18.4407 13.6561 18.4407H16.0085V20.7931C16.0085 21.1051 16.1324 21.4042 16.353 21.6248C16.5736 21.8454 16.8728 21.9693 17.1847 21.9693C17.4967 21.9693 17.7958 21.8454 18.0164 21.6248C18.237 21.4042 18.3609 21.1051 18.3609 20.7931V18.4407H20.7133C21.0253 18.4407 21.3245 18.3168 21.545 18.0962C21.7656 17.8756 21.8896 17.5764 21.8896 17.2645C21.8896 16.9525 21.7656 16.6534 21.545 16.4328C21.3245 16.2122 21.0253 16.0883 20.7133 16.0883H18.3609V13.7359Z" fill="white"/>
</svg>
