<svg width="22" height="23" viewBox="0 0 22 23" fill="none" xmlns="http://www.w3.org/2000/svg">
<path d="M20.4687 2.56981C20.4612 2.53324 20.4433 2.49957 20.4173 2.47277C20.3913 2.44596 20.3582 2.42712 20.3219 2.41846C17.9 1.82631 12.3039 3.93646 9.27207 6.96709C8.73131 7.50347 8.23833 8.08597 7.79873 8.70797C6.86378 8.62527 5.92883 8.69432 5.13199 9.04167C2.88373 10.0312 2.22914 12.6132 2.04679 13.7239C2.03644 13.7847 2.04034 13.847 2.05818 13.906C2.07602 13.9651 2.10732 14.0192 2.1496 14.0641C2.19188 14.1089 2.244 14.1434 2.30186 14.1647C2.35972 14.1861 2.42174 14.1937 2.48304 14.187L6.09341 13.7888C6.09599 14.061 6.11241 14.3329 6.14262 14.6034C6.16078 14.7913 6.24418 14.9668 6.37832 15.0996L7.7764 16.4944C7.9093 16.6284 8.0848 16.7117 8.27261 16.7301C8.54163 16.7602 8.812 16.7766 9.08268 16.7793L8.68654 20.3851C8.67993 20.4464 8.68761 20.5084 8.70897 20.5662C8.73033 20.624 8.7648 20.6761 8.80967 20.7184C8.85454 20.7606 8.90858 20.7919 8.96757 20.8098C9.02656 20.8277 9.08889 20.8316 9.14967 20.8214C10.2583 20.6436 12.8448 19.989 13.8286 17.7407C14.1759 16.9439 14.247 16.0135 14.1668 15.0831C14.7903 14.6434 15.3743 14.1503 15.9122 13.6093C18.9536 10.5832 21.0518 5.11207 20.4687 2.56981ZM12.8779 9.99936C12.6002 9.72183 12.411 9.36817 12.3343 8.98311C12.2576 8.59805 12.2969 8.19889 12.447 7.83613C12.5972 7.47337 12.8516 7.1633 13.1781 6.94515C13.5045 6.72699 13.8883 6.61055 14.2809 6.61055C14.6736 6.61055 15.0574 6.72699 15.3838 6.94515C15.7102 7.1633 15.9646 7.47337 16.1148 7.83613C16.265 8.19889 16.3042 8.59805 16.2276 8.98311C16.1509 9.36817 15.9617 9.72183 15.684 9.99936C15.4998 10.1838 15.2811 10.3301 15.0404 10.4299C14.7996 10.5297 14.5416 10.5811 14.2809 10.5811C14.0203 10.5811 13.7622 10.5297 13.5215 10.4299C13.2808 10.3301 13.062 10.1838 12.8779 9.99936Z" fill="white"/>
<path d="M7.68131 17.5046C7.45471 17.7316 7.09123 17.8201 6.65374 17.8958C5.67082 18.0633 4.80286 17.2139 4.97943 16.2203C5.04683 15.8435 5.24615 15.3155 5.3702 15.1914C5.39731 15.1648 5.41536 15.1304 5.42178 15.093C5.4282 15.0555 5.42266 15.017 5.40595 14.9829C5.38924 14.9488 5.36221 14.9208 5.3287 14.903C5.29519 14.8851 5.2569 14.8782 5.21927 14.8834C4.66961 14.9506 4.15825 15.1998 3.7666 15.5913C2.79444 16.5643 2.70264 20.1747 2.70264 20.1747C2.70264 20.1747 6.31507 20.0829 7.28724 19.1099C7.67993 18.7185 7.92945 18.2064 7.99558 17.656C8.01088 17.4831 7.8004 17.3802 7.68131 17.5046Z" fill="white"/>
</svg>
