<svg width="17" height="16" viewBox="0 0 17 16" fill="none" xmlns="http://www.w3.org/2000/svg">
<path d="M16.8152 5.04412H2.83662L6.16959 0.334559C6.26429 0.200735 6.17883 0 6.02408 0H4.34951C4.23633 0 4.13008 0.0566178 4.05848 0.156985L0.159625 5.66691C-0.221484 6.20735 0.122669 7 0.739372 7H16.8152C16.9169 7 17 6.90735 17 6.79412V5.25C17 5.13677 16.9169 5.04412 16.8152 5.04412Z" fill="white"/>
<path d="M0.184779 10.9559L14.1634 10.9559L10.8304 15.6654C10.7357 15.7993 10.8212 16 10.9759 16L12.6505 16C12.7637 16 12.8699 15.9434 12.9415 15.843L16.8404 10.3331C17.2215 9.79265 16.8773 9 16.2606 9L0.184779 9C0.0831496 9 6.0386e-07 9.09265 5.93961e-07 9.20588L4.58969e-07 10.75C4.4907e-07 10.8632 0.0831494 10.9559 0.184779 10.9559Z" fill="white"/>
</svg>
