<svg width="22" height="22" viewBox="0 0 22 22" fill="none" xmlns="http://www.w3.org/2000/svg">
<path d="M13.9256 9.18442H21.005C21.2386 9.18442 21.4627 9.09161 21.6279 8.9264C21.7931 8.76119 21.8859 8.53712 21.8859 8.30348C21.8859 6.19228 21.0472 4.16755 19.5544 2.67471C18.0615 1.18187 16.0368 0.343201 13.9256 0.343201C13.692 0.343201 13.4679 0.436013 13.3027 0.601221C13.1375 0.766429 13.0447 0.990499 13.0447 1.22414V8.30348C13.0447 8.53712 13.1375 8.76119 13.3027 8.9264C13.4679 9.09161 13.692 9.18442 13.9256 9.18442Z" fill="white"/>
<path d="M20.9094 10.957H12.2592C12.1324 10.957 12.0068 10.932 11.8896 10.8834C11.7724 10.8349 11.666 10.7638 11.5763 10.6741C11.4866 10.5844 11.4154 10.4779 11.3669 10.3607C11.3184 10.2435 11.2934 10.1179 11.2934 9.99111V1.31971C11.2942 1.18204 11.2659 1.04575 11.2103 0.919791C11.1547 0.79383 11.0732 0.681044 10.9709 0.588834C10.8687 0.496624 10.7481 0.427075 10.6171 0.384751C10.4861 0.342427 10.3476 0.328284 10.2108 0.343251C8.21832 0.554818 6.32644 1.32605 4.75393 2.56777C3.18141 3.80948 1.9925 5.47095 1.32467 7.36004C0.656844 9.24913 0.537386 11.2887 0.98011 13.2428C1.42283 15.1969 2.40966 16.9858 3.82646 18.4026C5.24326 19.8195 7.03216 20.8063 8.9863 21.249C10.9404 21.6917 12.98 21.5723 14.8691 20.9044C16.7582 20.2366 18.4196 19.0477 19.6613 17.4752C20.9031 15.9027 21.6743 14.0108 21.8859 12.0183C21.8977 11.8831 21.8811 11.747 21.8374 11.6185C21.7936 11.4901 21.7236 11.3722 21.6317 11.2723C21.5398 11.1724 21.4281 11.0928 21.3038 11.0385C21.1794 10.9842 21.0451 10.9564 20.9094 10.957Z" fill="white"/>
</svg>
