<svg width="22" height="22" viewBox="0 0 22 22" fill="none" xmlns="http://www.w3.org/2000/svg">
<path d="M11.3037 0.527649C5.46025 0.527649 0.717773 5.27013 0.717773 11.1135C0.717773 16.9569 5.46025 21.6994 11.3037 21.6994C17.1471 21.6994 21.8896 16.9569 21.8896 11.1135C21.8896 5.27013 17.1471 0.527649 11.3037 0.527649ZM11.3037 19.5823C6.63529 19.5823 2.83495 15.7819 2.83495 11.1135C2.83495 6.44516 6.63529 2.64483 11.3037 2.64483C15.972 2.64483 19.7724 6.44516 19.7724 11.1135C19.7724 15.7819 15.972 19.5823 11.3037 19.5823ZM14.4794 5.2913V7.93777H10.2451V10.0549H14.4794V12.7014L18.1845 8.99636L14.4794 5.2913ZM8.1279 9.52566L4.42283 13.2307L8.1279 16.9358V14.2893H12.3623V12.1721H8.1279V9.52566Z" fill="white"/>
</svg>
