<svg width="22" height="15" viewBox="0 0 22 15" fill="none" xmlns="http://www.w3.org/2000/svg">
<path d="M21.0718 3.03186C20.9586 2.62186 20.7328 2.247 20.417 1.94486C20.1011 1.64273 19.7062 1.42394 19.272 1.31042C17.6651 0.887606 11.2266 0.887606 11.2266 0.887606C8.54195 0.857289 5.85801 0.991795 3.19198 1.29029C2.75759 1.41209 2.3634 1.63592 2.04663 1.94065C1.72985 2.24537 1.50094 2.62093 1.38151 3.03186C1.09348 4.58413 0.953658 6.15751 0.963709 7.73309C0.952969 9.30876 1.0928 10.8822 1.38151 12.4344C1.49849 12.8442 1.7269 13.2184 2.04432 13.5203C2.36174 13.8221 2.75724 14.0411 3.19198 14.1558C4.82034 14.5786 11.2266 14.5786 11.2266 14.5786C13.9148 14.609 16.6024 14.4745 19.272 14.1759C19.7062 14.0625 20.1011 13.8437 20.417 13.5415C20.7328 13.2394 20.9586 12.8645 21.0718 12.4545C21.3671 10.903 21.5106 9.32938 21.5003 7.75329C21.5224 6.17009 21.3789 4.58866 21.0718 3.03186ZM9.18048 10.6626V4.80365L14.5369 7.73309L9.18048 10.6626Z" fill="white"/>
</svg>
